<svg xmlns="http://www.w3.org/2000/svg" width="24" height="25" viewBox="0 0 24 25" fill="none">
  <path d="M18.2649 5.10776C16.0571 2.89995 12.4617 2.89995 10.2563 5.10776L4.13908 11.2203C4.09924 11.2601 4.07815 11.314 4.07815 11.3703C4.07815 11.4265 4.09924 11.4804 4.13908 11.5203L5.00393 12.3851C5.04346 12.4245 5.09697 12.4466 5.15276 12.4466C5.20854 12.4466 5.26205 12.4245 5.30158 12.3851L11.4188 6.27261C12.1781 5.51323 13.1883 5.09604 14.2617 5.09604C15.3352 5.09604 16.3453 5.51323 17.1024 6.27261C17.8617 7.03198 18.2789 8.04214 18.2789 9.11323C18.2789 10.1867 17.8617 11.1945 17.1024 11.9539L10.868 18.1859L9.85783 19.196C8.9133 20.1406 7.37815 20.1406 6.43362 19.196C5.97658 18.739 5.7258 18.132 5.7258 17.4851C5.7258 16.8382 5.97658 16.2312 6.43362 15.7742L12.6188 9.59136C12.7758 9.43667 12.9821 9.34995 13.2024 9.34995H13.2047C13.425 9.34995 13.6289 9.43667 13.7836 9.59136C13.9406 9.74839 14.025 9.95464 14.025 10.175C14.025 10.3929 13.9383 10.5992 13.7836 10.7539L8.72815 15.8046C8.6883 15.8445 8.66721 15.8984 8.66721 15.9546C8.66721 16.0109 8.6883 16.0648 8.72815 16.1046L9.59299 16.9695C9.63252 17.0088 9.68603 17.0309 9.74182 17.0309C9.7976 17.0309 9.85111 17.0088 9.89065 16.9695L14.9438 11.9164C15.4102 11.45 15.6656 10.8312 15.6656 10.1726C15.6656 9.51401 15.4078 8.89292 14.9438 8.42886C13.9805 7.46558 12.4149 7.46792 11.4516 8.42886L10.8516 9.0312L5.26877 14.6117C4.88986 14.9884 4.5895 15.4365 4.38512 15.9302C4.18074 16.4238 4.0764 16.9532 4.07815 17.4875C4.07815 18.5726 4.50237 19.5921 5.26877 20.3585C6.0633 21.1507 7.10393 21.5468 8.14455 21.5468C9.18518 21.5468 10.2258 21.1507 11.018 20.3585L18.2649 13.1164C19.3313 12.0476 19.9219 10.625 19.9219 9.11323C19.9242 7.59917 19.3336 6.17651 18.2649 5.10776Z" fill="#333333"/>
</svg>