<svg xmlns="http://www.w3.org/2000/svg" width="24" height="25" viewBox="0 0 24 25" fill="none">
  <path d="M13.925 3.00405C14.317 3.00402 14.7023 3.10643 15.0426 3.30112C15.3829 3.49582 15.6664 3.77605 15.865 4.11405L16.679 5.50105H18.75C19.6118 5.50105 20.4383 5.84332 21.0477 6.4526C21.6572 7.06188 21.9997 7.88827 22 8.75005V18.2501C22 18.6768 21.9159 19.0995 21.7526 19.4938C21.5893 19.8881 21.3499 20.2464 21.0481 20.5481C20.7463 20.8499 20.388 21.0893 19.9937 21.2527C19.5994 21.416 19.1768 21.5001 18.75 21.5001H5.25C4.38805 21.5001 3.5614 21.1576 2.9519 20.5481C2.34241 19.9387 2 19.112 2 18.2501V8.75005C2 7.8881 2.34241 7.06145 2.9519 6.45195C3.5614 5.84246 4.38805 5.50005 5.25 5.50005H7.33L8.205 4.07605C8.40619 3.74827 8.68804 3.47753 9.02364 3.28969C9.35925 3.10184 9.7374 3.00315 10.122 3.00305H13.925V3.00405ZM13.925 4.50405H10.122C10.0126 4.50414 9.90448 4.52818 9.80532 4.57447C9.70616 4.62077 9.61833 4.68821 9.548 4.77205L9.483 4.86205L8.39 6.64205C8.32298 6.75137 8.22905 6.84169 8.11718 6.90436C8.0053 6.96704 7.87923 6.99998 7.751 7.00005H5.251C5.0211 6.99992 4.79343 7.04509 4.581 7.13298C4.36856 7.22086 4.17553 7.34975 4.01292 7.51226C3.85031 7.67478 3.72131 7.86774 3.63331 8.08012C3.5453 8.29251 3.5 8.52015 3.5 8.75005V18.2501C3.5 19.2161 4.284 20.0001 5.25 20.0001H18.75C19.2141 20.0001 19.6593 19.8157 19.9874 19.4875C20.3156 19.1593 20.5 18.7142 20.5 18.2501V8.75005C20.5 8.28592 20.3156 7.8408 19.9874 7.51262C19.6593 7.18443 19.2141 7.00005 18.75 7.00005H16.25C16.1193 7.00012 15.9908 6.96601 15.8773 6.90111C15.7638 6.83621 15.6692 6.74277 15.603 6.63005L14.571 4.87305C14.5048 4.76048 14.4105 4.66713 14.2972 4.60224C14.1838 4.53735 14.0556 4.50316 13.925 4.50305V4.50405ZM12 8.50005C13.1935 8.50005 14.3381 8.97416 15.182 9.81807C16.0259 10.662 16.5 11.8066 16.5 13.0001C16.5 14.1935 16.0259 15.3381 15.182 16.182C14.3381 17.0259 13.1935 17.5001 12 17.5001C10.8065 17.5001 9.66193 17.0259 8.81802 16.182C7.97411 15.3381 7.5 14.1935 7.5 13.0001C7.5 11.8066 7.97411 10.662 8.81802 9.81807C9.66193 8.97416 10.8065 8.50005 12 8.50005ZM12 10.0001C11.606 10.0001 11.2159 10.0776 10.852 10.2284C10.488 10.3792 10.1573 10.6002 9.87868 10.8787C9.6001 11.1573 9.37913 11.488 9.22836 11.852C9.0776 12.216 9 12.6061 9 13.0001C9 13.394 9.0776 13.7841 9.22836 14.1481C9.37913 14.5121 9.6001 14.8428 9.87868 15.1214C10.1573 15.3999 10.488 15.6209 10.852 15.7717C11.2159 15.9225 11.606 16.0001 12 16.0001C12.7957 16.0001 13.5587 15.684 14.1213 15.1214C14.6839 14.5588 15 13.7957 15 13.0001C15 12.2044 14.6839 11.4413 14.1213 10.8787C13.5587 10.3161 12.7957 10.0001 12 10.0001Z" fill="#333333"/>
</svg>