<svg xmlns="http://www.w3.org/2000/svg" width="20" height="20" viewBox="0 0 20 20" fill="none">
  <path d="M7.08073 15.8334H6.66406C3.33073 15.8334 1.66406 15 1.66406 10.8334V6.66669C1.66406 3.33335 3.33073 1.66669 6.66406 1.66669H13.3307C16.6641 1.66669 18.3307 3.33335 18.3307 6.66669V10.8334C18.3307 14.1667 16.6641 15.8334 13.3307 15.8334H12.9141C12.6557 15.8334 12.4057 15.9584 12.2474 16.1667L10.9974 17.8334C10.4474 18.5667 9.5474 18.5667 8.9974 17.8334L7.7474 16.1667C7.61406 15.9834 7.30573 15.8334 7.08073 15.8334Z" stroke="#292D32" stroke-width="1.5" stroke-miterlimit="10" stroke-linecap="round" stroke-linejoin="round"/>
  <path d="M5.83594 6.66669H14.1693" stroke="#292D32" stroke-width="1.5" stroke-linecap="round" stroke-linejoin="round"/>
  <path d="M5.83594 10.8333H10.8359" stroke="#292D32" stroke-width="1.5" stroke-linecap="round" stroke-linejoin="round"/>
</svg>