<svg xmlns="http://www.w3.org/2000/svg" width="24" height="25" viewBox="0 0 24 25" fill="none">
  <path d="M9 9.5C8.80109 9.5 8.61032 9.57902 8.46967 9.71967C8.32902 9.86032 8.25 10.0511 8.25 10.25C8.25 10.4489 8.17098 10.6397 8.03033 10.7803C7.88968 10.921 7.69891 11 7.5 11C7.30109 11 7.11032 10.921 6.96967 10.7803C6.82902 10.6397 6.75 10.4489 6.75 10.25C6.75 9.65326 6.98705 9.08097 7.40901 8.65901C7.83097 8.23705 8.40326 8 9 8C9.59674 8 10.169 8.23705 10.591 8.65901C11.0129 9.08097 11.25 9.65326 11.25 10.25C11.25 10.4489 11.171 10.6397 11.0303 10.7803C10.8897 10.921 10.6989 11 10.5 11C10.3011 11 10.1103 10.921 9.96967 10.7803C9.82902 10.6397 9.75 10.4489 9.75 10.25C9.75 10.0511 9.67098 9.86032 9.53033 9.71967C9.38968 9.57902 9.19891 9.5 9 9.5ZM15 9.5C14.8011 9.5 14.6103 9.57902 14.4697 9.71967C14.329 9.86032 14.25 10.0511 14.25 10.25C14.25 10.4489 14.171 10.6397 14.0303 10.7803C13.8897 10.921 13.6989 11 13.5 11C13.3011 11 13.1103 10.921 12.9697 10.7803C12.829 10.6397 12.75 10.4489 12.75 10.25C12.75 9.65326 12.9871 9.08097 13.409 8.65901C13.831 8.23705 14.4033 8 15 8C15.5967 8 16.169 8.23705 16.591 8.65901C17.0129 9.08097 17.25 9.65326 17.25 10.25C17.25 10.4489 17.171 10.6397 17.0303 10.7803C16.8897 10.921 16.6989 11 16.5 11C16.3011 11 16.1103 10.921 15.9697 10.7803C15.829 10.6397 15.75 10.4489 15.75 10.25C15.75 10.0511 15.671 9.86032 15.5303 9.71967C15.3897 9.57902 15.1989 9.5 15 9.5ZM6.8025 12.5C6.69515 12.5 6.58905 12.5231 6.49137 12.5676C6.3937 12.6122 6.30673 12.6772 6.23634 12.7582C6.16595 12.8393 6.11378 12.9345 6.08336 13.0375C6.05294 13.1404 6.04497 13.2487 6.06 13.355C6.26379 14.7852 6.97677 16.0939 8.06798 17.0406C9.15918 17.9874 10.5553 18.5086 12 18.5086C13.4447 18.5086 14.8408 17.9874 15.932 17.0406C17.0232 16.0939 17.7362 14.7852 17.94 13.355C17.955 13.2486 17.947 13.1402 17.9165 13.0371C17.886 12.934 17.8337 12.8387 17.7632 12.7577C17.6926 12.6766 17.6055 12.6116 17.5076 12.5672C17.4097 12.5227 17.3035 12.4998 17.196 12.5H6.8025ZM12 17C11.0691 17 10.1611 16.7116 9.40092 16.1744C8.64072 15.6371 8.0657 14.8775 7.755 14H16.245C15.9343 14.8775 15.3593 15.6371 14.5991 16.1744C13.8389 16.7116 12.9309 17 12 17ZM21 12.5C21 11.3181 20.7672 10.1478 20.3149 9.05585C19.8626 7.96392 19.1997 6.97177 18.364 6.13604C17.5282 5.30031 16.5361 4.63738 15.4442 4.18508C14.3522 3.73279 13.1819 3.5 12 3.5C10.8181 3.5 9.64778 3.73279 8.55585 4.18508C7.46392 4.63738 6.47177 5.30031 5.63604 6.13604C4.80031 6.97177 4.13738 7.96392 3.68508 9.05585C3.23279 10.1478 3 11.3181 3 12.5C3 14.8869 3.94821 17.1761 5.63604 18.864C7.32387 20.5518 9.61305 21.5 12 21.5C14.3869 21.5 16.6761 20.5518 18.364 18.864C20.0518 17.1761 21 14.8869 21 12.5ZM4.5 12.5C4.5 10.5109 5.29018 8.60322 6.6967 7.1967C8.10322 5.79018 10.0109 5 12 5C13.9891 5 15.8968 5.79018 17.3033 7.1967C18.7098 8.60322 19.5 10.5109 19.5 12.5C19.5 14.4891 18.7098 16.3968 17.3033 17.8033C15.8968 19.2098 13.9891 20 12 20C10.0109 20 8.10322 19.2098 6.6967 17.8033C5.29018 16.3968 4.5 14.4891 4.5 12.5Z" fill="#333333"/>
</svg>