<svg xmlns="http://www.w3.org/2000/svg" width="384" height="605" viewBox="0 0 384 605" fill="none">
  <path d="M134.867 29.71C141.598 29.0011 147.447 28.1625 153.293 24.5805C155.759 23.0686 158.144 21.2971 160.736 20.0044C165.957 17.3999 170.732 17.9392 176.052 19.6939C172.408 14.6529 166.178 11.9376 160.184 10.9293C153.246 9.76786 143.574 11.3525 137.829 15.595C133.251 18.9756 131.234 23.9249 130.515 29.384C129.717 35.4518 130.483 41.6505 131.979 47.5516C147.38 45.1602 162.549 40.7894 177.507 36.4644C179.277 37.1537 181.025 37.7932 182.866 38.2595C185.688 38.9795 191.425 39.265 192.6 42.5113C193.22 44.2188 192.587 45.8404 191.789 47.3747C190.647 49.5649 189.139 51.3541 187.326 53.0176C187.908 55.6855 188.287 58.7557 189.41 61.2344L190.016 61.5125L190.766 61.2183C190.861 60.3687 190.388 59.6593 190.022 58.92L190.254 58.7851C191.041 59.5524 191.624 60.1985 192.15 61.1649C191.155 64.6118 187.326 62.5089 188.196 67.704C187.738 68.9476 184.36 78.0693 183.974 78.5792C183.694 78.9537 183.125 79.22 182.715 79.4022C179.613 80.78 171.095 77.7932 167.717 76.7741C167.092 76.5852 166.606 76.2688 166.31 77.0631C166.253 77.211 166.185 77.9307 166.165 78.106C164.531 77.5218 162.287 74.2145 161.559 72.7091C158.406 66.2074 157.701 59.1973 160.192 52.3725C161.176 49.6697 163.151 46.5229 163.183 43.6217C160.952 44.8059 158.652 49.8518 157.946 52.1208C156.852 55.6095 156.617 58.8733 156.44 62.5126L155.138 63.74L155.218 63.9199C156.129 63.9789 156.36 63.844 157.001 64.4812L157.274 65.5262C155.314 65.0186 153.127 66.0968 150.945 66.0873C152.923 66.8439 155.307 66.0073 156.986 67.1015C157.313 67.8532 157.331 68.0096 157.251 68.8304C156.531 69.3652 156.148 69.4572 155.239 69.3648C153.912 69.224 152.537 68.6861 151.297 68.2071C145.659 66.024 146.793 63.139 143.472 59.4205L143.127 59.7187C143.198 61.1791 143.551 62.5698 144.197 63.8824C146.449 68.4479 148.884 70.4533 153.955 70.9737C155.221 71.1041 156.529 71.1154 157.738 71.5261C160.096 73.6695 161.404 76.8356 163.448 79.2723C164.609 80.6582 166.754 81.641 168.246 82.678C172.454 85.6108 175.871 90.3355 177.802 95.0562C180.145 100.774 179.927 105.315 177.542 110.977C180.992 110.347 184.494 109.803 187.818 108.663C193.643 106.668 205.873 99.6404 210.499 95.5431C200.42 100.173 190.25 102.702 179.181 100.889C186.287 97.9554 192.085 97.4296 198.956 93.0141C197.174 93.4534 195.373 93.7632 193.568 94.0934C196.422 92.6543 199.383 91.4772 202.176 89.8951C205.102 88.2329 207.84 86.2548 210.766 84.5925C213.497 83.0398 216.413 81.8298 219.3 80.6044C212.827 81.4792 206.695 81.8176 200.169 81.1892C206.763 78.2878 213.847 76.2123 220.698 73.9939C214.023 74.5947 201.565 73.0546 194.655 72.1671C199.879 71.0534 205.068 69.9252 210.24 68.6073C206.192 67.1941 202.624 65.409 198.931 63.2388C208.386 64.9021 217.568 65.3081 226.881 62.5922C220.083 61.9593 210.785 59.6356 205.096 55.7371C209.958 56.1041 214.804 56.9307 219.662 57.4043C225.132 57.9363 230.686 58.1106 236.172 58.4414C229.99 55.129 220.401 53.1151 215.107 49.2356C218.106 49.7758 221.162 50.0422 224.194 50.319C220.567 47.8072 216.687 45.9308 213.328 43.0067C217.588 44.5066 222.066 45.3501 226.448 46.3938C231.291 47.5457 236.176 48.8834 241.111 49.5572C235.513 44.7831 230.643 41.7729 223.778 39.1486C234.982 39.3833 238.784 41.2253 248.869 45.5225C247.413 43.1612 242.655 34.8844 243.217 32.1935C243.236 32.1043 243.276 32.0187 243.309 31.934L244.735 33.4914L245.096 33.3431L245.079 32.968C244.778 24.6631 247.845 8.2121 253.755 2.1547C254.557 1.3356 255.24 0.992123 256.338 0.7175C257.352 1.14513 257.854 2.47313 258.239 3.42804C259.574 6.72915 260.162 10.5097 261.192 13.9372C262.811 19.3487 267.856 32.0022 271.501 36.188C273.53 38.5211 276.057 40.128 278.847 41.4228C279.318 41.6421 279.729 41.6851 280.245 41.6787C273.409 46.8378 265.315 51.7062 259.597 58.1118C257.765 54.1182 254.091 51.2159 250.903 48.3252C249.552 57.9576 252.661 64.393 254.843 73.4631C268.477 60.6455 284.028 44.4317 303.774 43.1029C306.956 45.0467 308.654 48.4247 311.652 50.5094C318.132 55.0288 329.195 56.4185 331.483 65.2734C332.27 68.3273 332.166 71.5314 332.843 74.6022C334.394 81.5951 342.064 87.6483 347.032 92.4661C345.81 92.9653 344.571 93.4406 343.352 93.9657C337.89 88.7399 319.972 70.0766 319.124 63.5192L319.459 63.2822C320.352 63.7417 321.225 64.1643 322.168 64.5232L322.575 64.3216C322.865 62.9714 322.267 61.1542 321.558 59.9841C319.979 57.3897 308.121 50.2629 305.123 49.0796C306.235 50.8441 306.895 52.5522 307.605 54.4978C301.808 50.6292 296.676 49.1505 289.708 49.6107C292.938 50.7452 296.315 51.8041 299.123 53.8186C301.759 55.707 303.034 58.653 305.368 60.7799C309.499 64.5465 314.214 67.6269 318.311 71.518C323.34 76.2935 327.849 81.659 332.484 86.8128C335.177 89.806 338.044 92.6334 340.766 95.5957C337.761 97.4357 334.917 99.4631 332.127 101.621C330.369 96.6487 320.48 89.9154 316.069 87.1265C313.441 85.4686 308.986 83.4751 307.301 80.917C303.364 74.9201 306.011 68.6347 297.194 64.302C293.287 62.3833 288.569 62.3919 284.537 63.9323C280.186 65.5947 277.184 68.6206 274.954 72.615C277.21 72.3681 279.473 72.1332 281.666 71.5182C286.666 70.114 294.393 65.9184 299.112 69.8002C302.578 72.6482 302.831 77.8387 306.049 81.0497C308.811 83.8003 312.222 86.0336 315.332 88.3729C320.398 92.1881 326.864 97.3061 330.961 102.145L331.18 102.403C327.139 106.304 315.445 117.77 315.295 123.135C315.281 123.694 315.66 124.087 315.935 124.542L315.715 124.363C311.931 121.385 307.526 119.159 303.622 116.305C284.763 102.525 272.51 88.5063 263.268 66.867C260.386 69.5498 257.574 72.5135 254.48 74.9437C254.864 88.5317 256.441 108.949 260.868 121.545C262.998 127.607 266.246 133.564 270.934 138.027C274.055 140.994 277.738 143.053 281.644 144.793C270.868 147.482 259.952 151.02 249.445 154.635C249.58 135.44 244.199 118.828 246.862 99.6559C241.957 113.42 243.915 127.164 244.497 141.318C244.691 146.12 244.529 150.976 244.224 155.769C230.251 159.167 215.025 166.449 201.042 168.537C194.814 164.403 186.589 162.206 179.144 163.794C175.794 164.507 172.337 166.469 169.545 168.442C167.811 172.473 166.974 176.903 168.753 181.111C169.647 183.22 171.179 184.821 173.317 185.666C175.991 186.72 186.478 186.906 189.344 186.274L189.727 185.923C186.199 183.403 181.873 184.716 179.058 183.558C178.188 183.201 178.034 182.761 177.681 181.973C177.714 181.021 177.821 180.514 178.47 179.778C179.442 178.681 181.244 178.285 182.641 178.322C185.97 178.42 190.421 182.416 192.951 181.624C192.221 181.099 191.468 180.731 190.66 180.345L190.748 180.099C191.648 180.173 192.858 180.458 193.65 180.045C192.982 178.762 191.976 178.426 190.647 178.014C186.826 176.831 183.621 176.806 180.21 174.4C180.157 174.362 180.106 174.33 180.055 174.298C181.261 173 181.913 172.111 183.765 171.999C187.797 171.757 192.226 174.789 195.84 176.355C194.853 174.763 193.776 173.311 192.621 171.838C190.208 170.883 187.261 170.037 185.479 168.057L185.453 167.411C187.092 166.258 190.396 166.884 192.315 167.213C195.74 167.8 198.207 168.588 200.846 170.927C210.83 168.916 220.754 165.775 230.817 164.236C224.438 167.191 217.375 169.283 210.72 171.564C207.704 172.598 204.561 173.498 201.723 174.954C200.456 176.806 199.354 178.738 198.243 180.692C213.662 176.349 229.14 171.526 244.167 165.971C243.34 173.276 242.865 180.58 242.166 187.899C241.313 196.851 240.231 205.773 239.453 214.734C238.486 225.872 237.833 237.027 235.881 248.058C234.938 253.438 233.726 258.755 232.247 264.012C231.499 266.652 230.441 269.3 229.8 271.95C232.096 268.383 233.268 263.842 234.502 259.795C236.353 253.546 237.941 247.231 239.26 240.844C240.58 234.458 241.621 228.035 242.397 221.559C243.414 212.601 243.832 203.583 244.808 194.618C245.914 184.513 247.5 174.467 248.592 164.357C257.583 161.578 266.614 157.977 275.445 154.666C281.85 152.264 288.026 149.798 294.769 148.431C297.359 147.907 307.778 145.791 309.523 145.887C311.909 146.018 314.245 148.628 316.818 148.379C317.165 148.346 317.192 148.309 317.465 148.187C317.389 147.562 317.202 147.121 316.955 146.549C316.666 145.877 316.529 145.547 316.721 144.808C317.343 144.242 317.666 144.146 318.49 144.026C319.546 144.56 320.362 145.648 321.158 146.513C322.654 146.157 324.944 145.315 326.366 146.111C326.837 146.377 326.835 146.662 327.019 147.131C326.477 147.917 326.138 147.69 325.49 148.221C325.107 148.531 325.74 151.967 325.845 152.521C326.067 153.706 326.304 155.161 327.203 156.011C327.841 153.904 327.267 151.547 326.812 149.449C327.635 151.099 328.541 152.683 328.971 154.486C329.069 154.909 329.186 155.328 329.292 155.756L329.616 155.971C329.422 155.093 329.583 155.579 329.24 154.856C325.751 147.544 334.861 140.492 329.715 133.348C328.712 131.952 327.862 131.081 326.236 130.463C325.215 130.069 324.333 129.893 323.257 130.184C322.657 130.807 322.8 130.745 322.764 131.546C324.719 132.452 327.103 132.782 328.059 134.869C327.88 135.559 328.001 135.653 327.375 136.067C326.712 135.805 326.418 135.492 325.938 134.996C325.024 134.049 324.385 133.69 323.027 133.607C323.215 134.141 323.04 133.909 323.561 134.234C324.853 135.049 326.589 136.168 326.79 137.867C326.891 138.74 326.753 139.53 326.169 140.209C325.634 140.828 324.795 141.275 323.958 141.225C323.15 141.183 322.638 140.785 322.159 140.169C320.924 138.602 320.809 134.961 320.185 132.969C320.901 131.587 321.698 130.43 322.643 129.205L322.394 128.925C321.49 127.911 320.535 127.09 319.465 126.253C319.573 126.223 319.682 126.193 319.79 126.163C320.342 126.006 321.053 125.844 321.473 125.428C323.301 123.609 324.776 120.135 326.408 117.989C332.562 109.893 341.508 102.931 351.143 99.5563C355.372 103.527 359.521 107.582 363.594 111.709C366.12 114.257 368.596 117.178 371.376 119.442C374.489 121.973 379.248 122.793 381.924 125.676C383.194 127.038 383.766 129.251 383.806 131.067C383.913 135.776 380.907 139.943 381.207 144.742C381.379 147.546 382.778 150.141 383.217 152.91C382.337 155.166 381.397 157.16 379.078 158.245C377.161 159.143 374.058 159.003 372.834 160.914L372.94 161.388C373.199 162.601 373.61 164.069 372.919 165.222C371.236 168.032 359.972 171.512 356.571 171.895C354.245 172.153 351.764 171.964 349.884 170.43C344.699 166.189 345.946 160.151 337.629 157.525C335.91 156.987 333.777 156.565 331.985 156.681C331.473 156.714 330.995 156.833 330.496 156.95C329.934 157.739 329.798 158.323 328.815 158.52C327.614 157.869 327.08 157.063 326.371 155.946C317.662 154.48 302.766 149.45 294.815 149.597C291.001 149.666 287.012 150.749 283.577 152.377C281.083 157.373 278.383 162.361 276.466 167.619C270.394 184.273 268.051 207.904 265.619 225.907C264.371 235.133 263.773 244.358 260.609 253.188C256.483 264.691 251.557 270.638 245.364 280.503C247.491 278.95 249.114 276.527 250.652 274.415C256.599 266.264 262.12 256.688 263.669 246.574C263.741 246.093 263.807 245.612 263.866 245.132C264.809 249.985 265.532 254.904 266.7 259.709C271.7 280.31 275.944 290.336 271.263 312.602C269.876 319.191 267.755 325.879 263.966 331.505C263.355 332.407 262.737 333.304 262.105 334.19C266.289 340.288 270.652 346.299 274.751 352.45C282.774 364.467 288.53 375.799 300.791 384.295C306.361 388.152 312.45 390.259 316.129 396.342C319.14 401.321 318.715 410.162 317.623 415.785C316.938 419.31 315.422 422.386 313.158 425.166C310.687 428.197 307.583 430.728 304.676 433.335C299.298 438.151 293.707 442.96 288.916 448.361C281.876 456.296 275.47 469.998 267.091 475.606C262.506 478.677 256.82 479.716 251.993 482.471C246.966 485.338 242.776 489.388 237.994 492.608C233.873 495.381 219.083 503.432 214.168 502.152C212.994 501.848 212.228 500.826 211.779 499.762C209.388 494.031 211.87 482.482 214.306 476.938C216.466 472.013 219.881 467.883 225.031 465.899C228.254 464.656 234.854 463.828 238.147 465.417C238.77 465.719 239.341 466.155 239.888 466.568C237.67 466.756 235.285 466.545 233.757 468.424C231.327 471.415 231.01 477.124 231.546 480.826C232.006 484.043 233.219 487.277 235.905 489.23C236.501 489.662 237.035 490.031 237.73 490.282L238.256 490.128C238.055 488.602 235.577 486.364 234.714 484.84C232.268 480.523 232.3 473.565 235.252 469.44C237.107 466.849 241.546 467.221 244.402 466.272C245.008 464.953 245.531 463.607 246.459 462.483C246.261 463.574 245.96 464.502 245.47 465.498C243.658 469.197 239.432 470.117 235.838 471.272C238.493 471.812 241.208 471.926 243.907 472.108C246.177 469.154 247.001 465.581 248.418 462.209C248.883 461.097 249.757 459.491 250.969 459.1C251.43 458.949 251.665 459.185 252.078 459.367C253.324 461.051 252.877 463.493 252.783 465.469C257.593 455.749 260.526 457.453 267.957 451.507C275.56 445.421 287.251 432.471 290.874 423.518C287.361 426.629 284.621 430.84 281.736 434.538C275.217 442.889 266.024 452.811 255.92 456.504C253.698 457.315 251.24 456.977 248.957 457.692C248.856 457.721 248.761 457.755 248.661 457.791C248.928 457.16 249.182 456.564 249.721 456.103C251.503 454.59 254.541 453.613 256.665 452.552C258.844 451.461 260.924 450.207 262.907 448.789C272.481 441.99 286.757 427.616 288.746 415.573C287.422 412.78 286.126 410.036 285.653 406.961C277.746 402.468 269.362 399.189 260.639 396.684C244.045 391.909 220.906 390.001 209.342 375.856C216.482 373.534 224.846 370.599 230.902 366.096C235.221 362.888 239.077 358.995 243.284 355.618C249.507 359.495 255.438 362.945 262.081 366.107C256.856 361.216 252.17 356.295 248.778 349.917C253.578 344.527 258.66 339.644 262.12 333.213C259.083 335.748 256.562 339.058 253.812 341.906C247.286 348.661 234.154 361.68 226.372 366.295C222.539 368.567 218.239 370.129 213.917 371.163C218.626 366.351 221.955 361.008 225.154 355.122C235.331 336.413 237.21 320.164 238.433 299.463C236.58 304.493 235.504 309.828 233.719 314.907C229.703 326.347 223.908 336.563 217.42 346.752C222.611 343.615 227.172 335.074 230.468 329.948C228.774 338.168 227.106 346.04 223.588 353.732C214.331 373.99 203.664 378.246 184.066 385.457C186.423 395.196 188.589 404.984 189.91 414.922C191.312 425.438 191.919 436.075 194.157 446.468C195.381 452.146 197.235 457.92 200.389 462.837C201.904 465.189 204.47 467.963 205.265 470.592C206.465 474.563 205.293 481.391 204.597 485.488C203.768 490.367 201.03 495.235 197.302 498.499C192.265 502.904 182.437 504.592 175.789 508.781C169.963 512.446 164.675 516.897 159.646 521.573C156.607 524.399 153.583 527.621 150.197 530.003C148.277 531.358 145.988 532.333 143.624 532.477C139.355 532.729 135.292 530.483 130.967 530.378C126.137 530.258 121.57 532.457 116.752 532.03C113.937 531.78 111.104 530.856 108.357 530.231C105.686 529.627 102.95 529.252 100.249 528.792C97.0974 528.255 89.4359 527.006 87.7568 523.969C87.1863 522.93 87.348 521.653 87.7493 520.597C90.071 514.395 97.3376 508.54 103.262 505.986C116.396 500.318 119.496 507.729 130.444 512.125C132.667 510.498 134.874 508.86 137.35 507.632C140.336 506.146 143.501 505.004 146.539 503.636C149.7 502.209 152.781 500.603 155.95 499.188C159.535 497.584 163.508 496.178 166.706 493.871C167.989 492.945 169.001 491.895 169.732 490.484C171.471 487.135 171.262 483.223 171.596 479.573C171.974 475.386 173.562 471.271 172.903 467.024C170.956 454.386 146.026 421.31 138.782 407.668C134.91 400.369 133.644 392.643 131.223 384.863L130.835 384.922L130.191 385.001C116.396 386.888 92.8106 382.894 79.5654 379.036C52.5631 371.179 16.0002 349.619 2.42628 324.628C-5.80608 309.475 -5.75388 290.392 -0.840821 274.175C6.40789 250.248 22.3218 236.007 43.6774 224.615C43.6022 224.686 43.527 224.757 43.4527 224.835C40.6961 227.472 37.3077 229.404 34.6148 232.111C23.707 243.085 14.5843 258.908 12.5812 274.394C15.1841 269.116 16.5799 263.228 20.1404 258.446C18.5754 264.181 16.5267 269.745 15.2535 275.567C19.5902 272.084 23.2777 267.654 27.4845 263.973C36.4231 256.144 45.7988 248.919 54.9366 241.351C58.2122 238.641 61.5265 234.673 65.1361 232.541L65.8289 232.779C67.528 231.889 69.0488 226.167 69.7536 224.283C60.8254 226.741 52.6002 232.352 44.4052 236.606C46.7694 229.86 50.9234 226.094 56.7804 222.238C52.1587 222.484 47.8748 222.426 43.6654 224.623C41.5244 224.018 34.9253 227.961 32.9292 229.076C32.3922 229.377 31.8562 229.685 31.3212 229.999C30.7862 230.313 30.2586 230.632 29.7385 230.958C29.212 231.284 28.6929 231.615 28.1823 231.959C27.6642 232.297 27.1546 232.647 26.6514 232.996C26.1418 233.346 25.6406 233.708 25.1459 234.069C24.6448 234.431 24.1521 234.805 23.6669 235.184C23.1752 235.564 22.6964 235.943 22.2132 236.335C21.7364 236.726 21.2596 237.118 20.7913 237.521C20.323 237.924 19.8547 238.328 19.3949 238.743C18.935 239.158 18.4817 239.572 18.0303 240C17.5779 240.42 17.1405 240.852 16.6966 241.285C16.2592 241.717 15.8237 242.161 15.3948 242.605C14.9658 243.049 14.5443 243.498 14.1303 243.952C13.7163 244.407 13.3032 244.868 12.8977 245.335C12.4921 245.801 12.094 246.273 11.6959 246.745C11.3053 247.223 10.9147 247.7 10.5325 248.19C10.1493 248.673 9.77467 249.168 9.40645 249.662C9.03824 250.156 8.67101 250.656 8.31773 251.161C7.95798 251.667 7.61117 252.171 7.26637 252.688C6.92057 253.198 6.58223 253.714 6.25136 254.236C5.92051 254.757 5.5971 255.284 5.27371 255.811C4.95679 256.337 4.64186 256.876 4.33988 257.412C4.03142 257.95 3.73589 258.486 3.44237 259.035C3.14786 259.577 2.86731 260.124 2.58773 260.677C2.30816 261.231 2.03505 261.783 1.7759 262.34C1.51027 262.897 1.25211 263.461 1.00043 264.023C0.748743 264.585 0.504526 265.153 0.267786 265.726C0.0310308 266.299 -0.199239 266.872 -0.423039 267.443C-0.64583 268.02 -0.862164 268.597 -1.07102 269.179C-1.27988 269.762 -1.48226 270.343 -1.6707 270.928C-1.8656 271.515 -2.05404 272.101 -2.22852 272.691C-2.40949 273.282 -2.57652 273.878 -2.74354 274.473C-8.77743 296.556 -6.69261 316.478 4.70863 336.427C8.88689 343.739 14.1634 349.397 21.0623 354.184C14.584 353.734 7.29762 354.064 2.10296 358.52C-0.0347825 360.353 -1.10173 362.426 -2.10407 365.005C6.44016 360.393 13.8017 356.624 23.7913 359.524C30.2911 361.409 37.5847 367.255 43.9193 370.524C58.3433 377.96 73.5041 381.862 89.3389 384.931C88.187 389.861 86.4882 394.681 85.0678 399.546C82.0052 410.031 79.0874 421.07 74.0073 430.805C68.0571 442.21 50.5683 454.44 49.922 467.842C49.7512 471.347 51.5045 474.564 51.6241 478.019C51.8752 484.92 50.1658 488.291 54.187 494.752C57.2149 499.623 60.6886 504.246 64.0533 508.892C69.4373 516.33 74.797 523.653 80.9309 530.492C84.5054 534.477 90.0631 537.435 92.8839 541.906C94.8116 544.964 94.7969 549.142 96.2618 552.509C100.079 555.614 104.604 557.067 109.019 559.1C118.69 563.554 126.33 570.924 132.7 579.298C124.559 583.126 106.998 586.857 98.4351 583.625C96.1059 582.743 94.8532 580.973 93.8766 578.757C91.7238 573.845 91.8283 565.418 86.2337 562.997C81.392 560.903 76.0641 562.636 72.1327 557.924C68.1589 553.153 65.9847 544.864 63.0641 539.181C58.7476 530.797 53.6939 522.963 48.2506 515.269C42.8571 507.64 36.9585 500.347 31.0549 493.108C26.7441 487.825 16.4635 477.029 14.2237 471.335C13.2766 468.922 13.6833 465.917 14.72 463.603C16.4005 459.872 19.604 456.65 21.7771 453.148C28.8938 441.656 32.9396 427.732 33.3777 414.27C35.4225 427.802 33.4194 444.799 26.7413 456.946C24.7829 460.507 21.1454 464.227 20.696 468.379C20.1517 473.381 25.8057 480.764 29.6655 483.671C30.3546 484.188 31.0344 484.601 31.8138 484.972C32.4147 484.223 32.514 483.618 32.3927 482.656C31.6776 476.92 26.1524 471.929 26.3219 465.997C26.4476 461.723 29.4948 456.662 31.0339 452.701C31.9939 450.234 32.7826 447.687 33.5399 445.151C42.5969 414.743 32.9315 396.258 9.41844 377.068C5.97008 374.251 2.53369 371.339 -1.08109 368.732C-1.64031 368.328 -2.2105 367.938 -2.79164 367.563C-7.3412 376.997 -11.9136 386.369 -17.8705 395.012C-20.7227 399.141 -24.4363 402.754 -27.1321 406.952C-28.5651 409.187 -29.6686 411.67 -30.9413 414C-33.0502 417.79 -35.4773 421.364 -38.2237 424.715C-40.8534 427.876 -43.9667 430.866 -47.0729 433.557C-51.5666 437.442 -61.3291 443.832 -63.6451 448.907C-65.6396 453.269 -64.8985 458.484 -66.2256 463.049C-67.3194 466.803 -70.5238 469.588 -71.41 473.356C-72.2363 476.91 -71.7728 481.352 -71.7504 484.994C-71.6702 498.94 -71.2545 512.093 -68.769 525.861C-67.5198 532.788 -64.6644 541.715 -65.3322 548.631C-65.9192 554.693 -70.7111 558.232 -72.8374 563.55C-75.2074 569.481 -75.3885 575.898 -77.0787 581.983C-77.5135 583.555 -78.0394 585.094 -78.8407 586.522C-80.5698 589.592 -89.9293 602.793 -92.7039 603.889C-94.3094 604.526 -96.1482 604.119 -97.6467 603.382C-101.7 601.373 -104.856 596.96 -106.188 592.69C-108.052 586.726 -110.804 577.996 -107.743 572.25C-106.128 569.212 -100.987 561.516 -97.7113 560.489C-94.9233 559.61 -91.7721 559.716 -89.4017 557.715C-88.5448 556.994 -87.9309 556.071 -87.1328 555.312C-87.0869 555.266 -87.0242 555.243 -86.9699 555.208C-87.2812 557.065 -88.2045 558.261 -89.7199 559.355C-92.0693 561.061 -98.8782 562.127 -99.4499 565.137C-100.124 568.687 -96.5741 574.154 -94.5457 576.918C-92.4347 579.788 -88.5704 584.364 -84.8534 584.874C-83.6417 585.039 -82.3083 584.788 -81.3418 584.003C-80.3349 583.179 -79.7205 581.872 -79.1319 580.741C-81.4571 581.396 -83.7186 582.208 -86.0198 580.99C-89.8584 578.955 -93.7312 571.086 -94.8313 567.073C-95.1328 565.972 -95.2551 565.176 -94.6925 564.135C-92.0178 562.173 -86.103 564.997 -85.4288 560.539C-84.3131 553.13 -90.027 549.758 -90.4018 543.692C-90.736 538.322 -87.6229 530.626 -86.7626 525.006C-85.7572 518.389 -86.4919 511.576 -86.9692 504.928C-87.6072 496.026 -88.1938 486.638 -90.1308 477.908C-91.1675 473.229 -93.1924 468.847 -94.4756 464.246C-96.2171 457.998 -97.7374 447.839 -98.3422 441.31C-98.7439 437.011 -98.2444 433.574 -94.6331 430.806C-91.8049 428.635 -88.4555 427.139 -85.7682 424.785C-77.1664 417.267 -71.3644 403.558 -69.132 392.544C-68.3236 401.52 -68.3007 410.172 -69.9473 419.088C-70.5434 422.328 -71.4852 425.475 -72.1455 428.685C-71.0593 427.384 -70.1335 425.99 -69.4298 424.443C-64.2497 413.116 -66.3284 396.514 -69.73 384.894C-70.5898 381.971 -71.8268 379.138 -72.8878 376.286C-76.1701 367.471 -77.9138 358.102 -79.2007 348.815C-79.8627 344.071 -80.6504 339.288 -80.9608 334.504C-82.2423 314.677 -79.2916 293.061 -70.8685 274.926C-70.5122 274.182 -70.1494 273.437 -69.7781 272.704C-69.4078 271.965 -69.0291 271.237 -68.6374 270.508C-68.2522 269.779 -67.853 269.055 -67.4464 268.336C-67.0398 267.618 -66.6257 266.905 -66.2116 266.192C-65.79 265.484 -65.362 264.775 -64.9255 264.079C-64.489 263.382 -64.046 262.684 -63.5881 261.998C-63.1376 261.305 -62.6722 260.624 -62.2068 259.943C-61.7414 259.262 -61.2611 258.591 -60.7733 257.927C-60.2865 257.255 -59.7977 256.597 -59.295 255.943C-58.7922 255.289 -58.2895 254.636 -57.7718 253.993C-57.2541 253.35 -56.7365 252.707 -56.2038 252.075C-55.6712 251.443 -55.1376 250.818 -54.5901 250.197C-54.049 249.577 -53.4939 248.961 -52.9369 248.359C-52.3809 247.75 -51.8099 247.152 -51.239 246.554C-50.667 245.962 -50.0886 245.37 -49.5017 244.789C-48.9148 244.209 -48.3269 243.634 -47.7251 243.065C-47.1233 242.495 -46.5194 241.938 -45.9091 241.381C-45.2979 240.83 -44.6791 240.284 -44.0529 239.744C-43.4266 239.203 -42.7984 238.676 -42.1637 238.148C-41.528 237.626 -40.8859 237.103 -40.2343 236.599C-39.5836 236.088 -38.932 235.584 -38.2719 235.091C-37.6118 234.599 -36.9443 234.112 -36.2758 233.632C-35.6072 233.151 -34.9302 232.683 -34.2457 232.22C-33.5612 231.757 -32.8757 231.3 -32.1828 230.849C-31.4889 230.404 -30.7949 229.96 -30.0915 229.534C-29.3891 229.101 -28.6783 228.68 -27.9674 228.26C-27.2555 227.845 -26.5362 227.437 -25.8159 227.035C-25.0945 226.639 -24.3657 226.248 -23.636 225.865C-22.9062 225.481 -22.1679 225.109 -21.4287 224.744C-20.6894 224.378 -19.9417 224.025 -19.2005 223.672C-18.4518 223.325 -17.7021 222.985 -16.9439 222.656C-16.1858 222.328 -15.4266 222.006 -14.6665 221.69C-6.48619 218.333 2.0838 215.917 10.9824 215.77C16.8204 215.675 22.3789 217.301 28.0791 218.295C44.2661 221.111 58.7166 219.827 74.1225 214.147C74.274 213.839 74.4265 213.537 74.592 213.233C78.013 206.809 82.9176 201.37 90.0571 199.22C91.078 199.567 91.8081 200.005 92.872 199.769L93.1842 200.291L93.5951 200.334C93.3121 200.649 93.043 200.968 92.7685 201.296C91.2738 203.043 89.0954 207.805 88.0861 208.397C87.0776 208.174 86.5593 207.346 85.9205 206.596C82.9673 208.945 80.6519 211.951 78.4834 215.008C70.1449 226.788 68.1718 236.211 63.1576 249.136C61.6419 253.034 59.7018 256.759 58.1432 260.637C56.2353 265.39 54.8397 270.503 53.4014 275.423C58.0903 271.945 63.114 271.512 68.6762 270.658C68.1058 276.18 66.3861 280.865 64.2435 285.946C63.8719 286.03 63.4993 286.107 63.1203 286.185C59.771 286.905 56.3708 286.473 53.0261 287.092C52.5662 287.766 52.4209 288.763 52.4924 289.574C52.6618 291.41 55.9312 291.292 57.4717 291.354C62.8219 291.58 68.1931 293.453 73.44 294.516C79.6999 295.788 86.9069 296.193 92.8198 298.658C95.8144 299.902 98.0796 301.834 100.538 303.902L90.8135 304.454C92.3185 310.328 93.824 316.247 95.8176 321.979C101.717 338.942 114.256 366.345 129.011 376.845C128.605 373.639 127.954 370.392 128.086 367.151C128.24 363.362 129.466 359.608 130.23 355.905C131.992 347.356 130.986 339.034 128.738 330.696C129.494 342.305 128.487 348.657 124.98 359.741C123.814 357.891 122.679 356.024 121.587 354.137C120.489 352.251 119.427 350.34 118.402 348.416C117.377 346.486 116.389 344.543 115.431 342.576C114.479 340.608 113.559 338.628 112.682 336.629C111.805 334.629 110.959 332.618 110.157 330.587C109.354 328.556 108.583 326.514 107.857 324.458C107.13 322.403 106.434 320.329 105.782 318.242C105.13 316.155 104.517 314.062 103.942 311.956C102.374 306.318 101.242 300.586 99.8203 294.912C98.9113 291.281 97.5959 287.764 96.662 284.143C95.3137 278.902 94.4974 273.5 93.7872 268.141C92.8523 261.06 93.0133 253.605 92.566 246.463L94.2304 243.576C94.8837 254.909 95.3786 266.16 97.2322 277.368C101.591 273.855 105.871 270.05 108.839 265.246C112.342 259.572 113.558 253.035 114.952 246.617C117.499 234.846 120.082 223.871 126.948 213.724C126.092 216.433 124.639 219.102 123.604 221.773C122.041 225.791 120.894 230.017 119.811 234.186C114.123 256.11 117.286 264.791 97.601 280.201C97.9485 282.68 98.6112 285.096 99.2222 287.521C103.691 284.813 107.824 281.905 111.193 277.856C111.764 277.171 112.297 276.46 112.801 275.726C113.305 274.993 113.779 274.237 114.21 273.462C114.641 272.686 115.048 271.888 115.414 271.076C115.78 270.265 116.11 269.438 116.399 268.599C118.143 263.725 118.98 258.473 119.849 253.382L123.359 232.349C124.336 226.492 125.132 220.63 126.932 214.959C128.751 209.232 138.554 202.199 138.046 196.431C136.826 195.18 136.722 193.419 135.908 191.921C134.252 188.861 130.577 186.641 127.903 184.507C127.832 189.436 128.985 194.442 127.851 199.315C126.144 206.676 117.766 211.117 115.293 216.508C114.538 218.148 114.455 219.811 114.349 221.584C114.31 222.233 114.307 222.26 113.942 222.859C113.176 221.326 113.671 218.765 113.854 217.067C112.215 218.823 110.548 220.398 108.702 221.927C109.537 226.803 109.975 234.146 108.497 238.893C107.969 233.082 108.158 227.32 107.262 221.525C100.13 232.012 93.1039 243.146 86.4481 253.97C85.1062 256.152 84.0411 258.496 82.6609 260.643C76.8383 269.729 66.3392 267.179 57.729 269.118L57.204 269.238C59.388 258.729 67.7439 248.79 72.7328 239.195C75.9452 233.009 78.4011 226.255 81.9734 220.299C84.2407 216.504 87.2426 212.961 89.9073 209.423C91.1361 210.865 102.136 220.775 102.929 220.892C103.161 220.591 103.465 220.239 103.523 219.839C103.857 217.568 96.3665 205.045 94.6568 202.802C95.5525 202.074 96.4618 201.133 97.6776 201.065C97.8942 201.052 98.1074 201.059 98.3251 201.052C98.1583 200.7 97.5771 200.498 97.2424 200.304L97.1201 199.766C99.0657 192.15 109.906 197.524 115.458 193.928C115.91 193.633 116.246 193.449 116.746 193.252C116.487 194.286 115.338 195.179 114.592 195.93C111.296 197.085 107.734 197.453 104.296 197.981C108.471 198.798 111.607 198.416 115.606 197.007C114.85 197.998 114.043 199.175 112.905 199.748C109.818 201.309 106.01 200.078 102.93 199.099C103.225 198.775 103.414 198.541 103.626 198.15C102.37 197.912 100.99 197.342 99.7679 197.715L99.4878 198.395C99.6615 198.965 99.6176 199.11 100.097 199.514C103.192 202.147 112.576 202.052 116.473 201.573C119.545 199.397 122.369 195.597 124.308 192.389C126.914 188.079 126.306 183.771 125.158 179.149C136.241 185.242 134.388 181.503 144.912 180.072L145.413 180.009C147.154 180.689 148.458 181.45 149.924 182.623C146.72 185.932 143.485 187.695 140.474 191.571C142.781 190.626 144.933 189.355 147.255 188.422C151.12 186.874 154.865 185.881 158.545 183.865C152.031 182.101 152.331 184.487 147.21 178.891C147.052 178.942 146.884 178.974 146.729 179.044C146.277 179.247 145.974 179.518 145.481 179.634C140.93 180.73 109.494 175.205 103.774 173.346C99.6656 172.015 95.7359 169.947 92.132 167.584C85.4476 163.202 83.364 158.525 81.7882 150.853C74.1737 150.989 66.3087 148.889 58.9615 149.341C50.9643 149.833 43.208 152.887 35.2038 153.506L34.6464 153.545C40.825 149.972 46.8799 146.974 53.9833 145.797C50.3269 147.625 46.8736 149.911 43.2591 151.839C47.201 151.094 51.0396 149.676 54.9393 148.699C63.3005 146.607 71.7143 146.886 80.1838 147.958C70.1889 144.462 52.6315 142.26 44.985 135.541C42.059 132.974 41.4142 130.502 41.1782 126.806C38.0716 129.02 35.5108 131.594 33.5878 134.911C28.8254 143.132 27.9744 153.085 30.507 162.154C32.2405 168.351 36.0675 176.266 41.913 179.544C39.7698 175.903 37.6323 173.077 36.1253 169.046C37.7626 170.386 39.4831 171.619 41.2793 172.742C43.0756 173.865 44.9336 174.872 46.8589 175.756C55.0705 179.552 64.3361 181.795 72.8477 184.955C79.1661 187.298 85.4043 191.278 92.0253 192.614C96.6148 193.54 100.841 191.711 105.319 192.257L105.139 192.423C103.717 192.615 101.74 192.687 100.448 193.296C99.7068 193.649 99.0298 194.289 98.2248 194.486C96.1676 194.987 93.428 194.281 91.2728 194.36C90.0604 194.407 88.9376 195.037 87.7999 195.398C85.3277 196.175 82.0805 195.487 79.5594 195.125C64.5022 192.977 42.3047 187.577 32.936 174.951C32.6024 174.505 32.2743 174.052 31.9646 173.589C31.655 173.126 31.3508 172.656 31.0585 172.177C30.7663 171.699 30.4935 171.217 30.2252 170.721C29.9568 170.226 29.709 169.733 29.4655 169.227C29.2286 168.72 28.9981 168.212 28.7861 167.695C28.5741 167.177 28.3685 166.658 28.1814 166.13C27.9943 165.602 27.8201 165.072 27.6588 164.54C27.4976 164.008 27.3484 163.468 27.2185 162.925C27.0822 162.382 26.9653 161.837 26.8549 161.29C26.7509 160.743 26.6535 160.195 26.5744 159.637C26.4964 159.085 26.4313 158.532 26.3791 157.976C26.327 157.421 26.2943 156.863 26.2681 156.303C26.2483 155.743 26.236 155.188 26.2431 154.63C26.2503 154.073 26.2703 153.513 26.3044 152.957C26.3384 152.402 26.3854 151.845 26.4453 151.285C26.5062 150.733 26.5801 150.178 26.6744 149.626C28.2621 139.335 32.9054 131.589 41.2353 125.538L41.0164 124.889L41.5293 125.294L41.8691 124.831C41.6695 118.956 41.3058 108.732 45.5587 104.056C48.8196 100.473 53.2273 97.5828 56.7636 94.1964C64.4903 86.8062 81.6403 71.3344 90.8808 66.7672C96.321 64.0826 102.469 62.4691 108.269 60.7434C116.369 58.333 123.782 56.671 132.242 56.2137C132.225 56.1036 132.208 55.9935 132.185 55.8844C132.157 55.7031 132.11 55.5248 132.082 55.3435C131.637 52.6149 130.447 50.5242 129.324 48.0455C127.407 43.8063 127.016 38.5376 127.219 33.9464C127.234 33.4803 127.261 33.0121 127.303 32.5484C127.344 32.0847 127.392 31.62 127.459 31.1523C127.521 30.6921 127.596 30.2299 127.684 29.7658C127.773 29.3081 127.868 28.8494 127.977 28.3951C128.086 27.9409 128.209 27.4912 128.339 27.0405C128.469 26.5898 128.613 26.15 128.771 25.7083C128.928 25.2665 129.093 24.8302 129.266 24.3995C129.438 23.9687 129.63 23.5349 129.83 23.1131C130.031 22.6913 130.238 22.2685 130.459 21.8566C130.681 21.4448 130.91 21.0384 131.147 20.6376C131.384 20.2367 131.634 19.8403 131.892 19.4494C132.151 19.0584 132.424 18.6785 132.704 18.304C132.985 17.9296 133.273 17.5606 133.568 17.1971C133.864 16.8335 134.174 16.481 134.485 16.1349C134.803 15.7879 135.123 15.4537 135.457 15.1241C135.791 14.7945 136.132 14.4703 136.475 14.1591C143.468 7.81616 154.222 4.38845 163.597 4.88418C172.846 5.37938 180.97 9.59336 186.176 17.2975C187.857 19.7834 189.197 22.812 191.225 25.0126C191.288 25.0759 191.351 25.1456 191.414 25.2089C195.234 25.4839 205.11 25.6177 207.735 28.8997C208.318 29.632 208.311 29.8452 208.288 30.7303C207.746 31.8209 207.084 32.4264 206.06 33.0542C198.997 37.3864 187.877 37.1786 180.084 35.5053C186.983 32.8685 194.122 31.1028 201.168 28.9472C196.312 28.4866 190.931 28.0204 186.136 29.1213C182.563 29.9416 179.59 32.8903 175.783 32.5735C171.942 32.2486 166.801 34.1648 162.937 34.9835C153.848 36.9095 144.549 39.2453 135.266 39.8225C134.77 36.5052 134.828 33.0431 134.925 29.7011L134.867 29.71ZM151.974 54.5756L152.63 54.7068L152.965 55.4639L153.331 55.6L153.793 56.3243L154.11 56.4878C154.342 56.7439 154.582 57.0582 154.846 57.2695C155.073 57.533 154.892 57.3487 155.529 57.6153L155.419 57.4136L154.846 57.2695C154.651 56.988 154.353 56.7289 154.11 56.4878L153.793 56.3243L153.331 55.6L152.965 55.4639L152.63 54.7068L151.974 54.5756ZM116.768 73.8805C112.822 71.2321 108.869 68.4522 103.843 69.3897C99.9383 70.1153 96.9826 74.1747 94.9077 77.3235C89.0305 86.2258 88.7114 92.4786 87.3782 102.572C86.8826 106.294 86.1359 110.02 85.9899 113.774C85.7701 119.594 86.1755 125.385 85.6962 131.198C85.1339 138.025 82.4606 145.693 83.9973 152.463C85.1489 157.502 89.8542 160.995 94.0602 163.524C98.6028 166.259 102.666 167.385 107.968 167.638C101.513 166.044 94.6913 163.102 91.0312 157.222C91.6636 154.175 92.3926 151.154 93.0464 148.117C91.2216 149.484 89.4182 150.947 87.4475 152.098C90.985 148.029 94.7724 144.034 99.9146 142.085C101.975 141.304 104.113 140.764 106.152 139.927C104.704 139.997 103.166 140.293 101.89 139.495C101.551 139.017 101.348 138.69 101.22 138.113C98.5621 137.593 91.4356 143.195 89.1061 144.772C88.3499 145.286 87.6012 145.805 86.8619 146.343C88.5557 143.345 97.9448 129.516 100.696 128.828C101.71 128.573 102.933 128.809 103.662 127.902C104.403 126.986 104.606 126.067 104.35 124.913C103.428 120.813 95.4839 116.598 92.0996 114.758C95.1165 114.507 98.0814 114.609 101.1 114.715C98.5668 113.712 96.2306 112.785 93.4952 112.496C95.8913 111.353 98.3891 111.691 100.837 112.396C99.8142 111.088 98.2116 110.493 97.17 109.234C96.5441 108.482 96.2908 107.739 96.3439 106.789L96.9716 106.302C100.34 105.838 103.556 107.272 106.554 108.622C104.335 105.35 102.196 102.862 100.677 99.1382C103.627 100.912 106.548 102.757 109.664 104.227C108.835 101.895 108.028 99.6199 106.575 97.5829C104.394 94.5111 101.5 93.0599 97.8476 92.4542C96.1335 93.1615 94.5708 94.0775 92.9787 95.0179C93.9199 90.1411 96.9576 84.9754 100.355 81.3718C102.337 79.2646 104.22 77.9681 107.187 77.9102C111.877 77.8129 118.026 80.5605 121.301 83.8885C124.143 86.7726 124.769 90.3749 124.659 94.2758C124.514 99.7196 122.408 106.121 118.27 109.858C117.426 110.624 116.789 110.96 115.611 110.889C114.72 110.436 114.476 109.844 114.04 108.99L113.867 108.639L113.627 108.801C113.477 110.157 113.125 111.49 112.818 112.816C113.308 113.371 113.789 113.96 114.155 114.613C118.234 121.973 113.776 134.203 111.757 141.559C116.344 151.704 132.326 154.738 140.401 161.445C138.622 162.46 136.799 163.41 135.007 164.387C136.688 163.937 138.347 163.649 140.063 163.386L140.419 163.676L139.702 165.045L139.885 165.375C142.916 165.042 145.908 164.715 148.953 164.692C148.877 164.63 148.802 164.569 148.719 164.509L148.33 164.217C145.289 161.894 141.803 160.169 138.479 158.293C130.069 153.547 121.598 149.313 114.029 143.231C114.864 137.88 116.765 132.73 117.602 127.352C118.299 122.871 117.916 118.257 118.516 113.751L118.588 113.229C121.419 109.646 124.258 105.91 125.776 101.554C128.043 95.0353 126.549 86.6418 123.652 80.5516L124.456 81.0444C124.506 79.6384 123.968 78.2496 124.148 76.8764L124.499 76.6171C126.979 83.8782 127.137 90.9922 128.785 98.3546C128.887 95.436 128.571 92.0445 130.228 89.5367C129.776 89.5331 130.053 89.5635 129.408 89.3377C127.529 83.575 124.532 74.6766 124.486 68.6788C124.462 65.1564 126.8 62.5506 129.119 60.173C122.928 60.7326 93.6369 67.4508 88.9717 70.3478C84.9231 72.8584 81.9124 77.8542 78.3318 81.0817C70.8862 87.7991 62.1809 95.1607 53.9939 100.892C51.1389 102.888 48.1031 104.613 45.153 106.465C43.8557 113.166 44.0411 121.409 47.7909 127.355C50.8831 132.255 55.8756 134.597 61.3018 135.878C58.8273 134.137 56.3006 132.358 54.0813 130.293C50.2422 126.7 48.3083 122.696 48.1603 117.416C49.1077 118.967 49.9131 120.587 50.9876 122.059C55.4147 128.1 61.2817 130.957 68.5518 132.074C64.6895 129.194 60.6355 126.317 58.0946 122.114C55.4565 117.754 55.5378 113.924 56.6413 109.154C57.7198 113.933 58.8874 117.22 62.8427 120.404C61.4852 112.169 62.8747 107.276 65.6332 99.6015C65.3368 105.009 64.7854 110.654 66.4081 115.913C67.9284 120.849 70.7511 123.65 75.2097 125.968C66.8677 112.82 70.2707 106.969 73.3388 92.9369C73.7709 104.383 74.183 109.052 82.9244 117.161C80.8037 106.2 78.9754 103.876 82.5283 92.6128C82.5079 94.1205 82.6027 95.6436 82.662 97.1523C82.9892 92.1178 83.3505 87.8669 85.6011 83.2728C84.8033 89.9901 84.4378 96.6741 85.7205 103.344C86.2619 99.5754 86.5658 95.7707 87.059 91.99C87.2442 90.563 87.6809 89.0909 87.7948 87.6749C87.8738 86.7216 87.4528 85.5336 87.204 84.6041L87.6627 84.7855L87.0966 83.991L87.876 87.7287C90.3769 82.0887 90.5343 76.7689 95.5586 72.4116C98.6997 69.6891 102.726 67.8976 106.945 68.3102C110.901 68.6904 114.274 70.8435 116.754 73.876L116.768 73.8805ZM126.615 122.681C127.191 122.46 127.764 122.226 128.301 121.925C133.424 119.03 137.911 112.595 139.554 107.021C141.13 101.662 140.507 96.528 137.887 91.6347C137.642 91.2945 137.423 91.1161 137.099 90.861C136.376 92.9338 136.941 96.5255 136.967 98.7684C137.057 105.827 133.999 113.706 129.758 119.282C128.82 120.513 127.628 121.511 126.608 122.682L126.615 122.681ZM112.348 135.907C111.644 136.85 110.429 138.475 110.43 139.648C111.25 139.376 111.248 139.019 111.616 138.266C111.978 137.515 112.242 136.732 112.348 135.907ZM187.208 137.316C191.637 132.885 195.194 127.474 199.282 122.717C194.192 124.705 189.442 126.229 183.94 125.749C191.168 122.014 198.622 116.091 202.702 108.949C197.553 109.601 192.54 110.881 187.347 111.333C184.286 111.598 181.021 110.621 178.032 111.273C175.543 111.814 173.293 113.087 171.043 114.228C172.841 113.766 175.224 112.884 177.054 112.974C177.983 113.023 178.519 113.365 179.102 114.051L178.082 114.705L178.419 114.958L179.479 114.57C179.561 114.624 179.654 114.669 179.73 114.737C181.786 116.515 182.709 124.983 182.958 127.682C183.65 128.352 184.376 129.022 185.011 129.747C187.097 132.11 187.39 134.273 187.209 137.323L187.208 137.316ZM181.486 145.592C178.139 147.232 174.832 148.92 171.275 150.056C169.897 147.597 168.994 145.256 168.436 142.486C167.797 139.316 167.627 128.068 165.972 126.4C165.412 126.374 165.298 126.239 164.844 126.646C162.928 128.372 163.381 132.445 163.425 134.758C163.426 134.811 163.429 134.87 163.437 134.922C164.69 144.552 168.956 151.572 173.513 159.966C174.86 151.474 176.817 151.531 181.485 145.585L181.486 145.592ZM147.787 165.56C147.014 166.268 146.184 166.906 145.715 167.86C146.376 168.07 147.894 166.776 148.673 166.411L149.196 166.623L149.129 166.872C148.575 167.109 147.975 167.347 147.459 167.652C146.608 168.154 145.775 169.163 145.685 170.171C145.625 170.856 145.791 171.381 146.285 171.835C147.003 170.466 147.638 168.817 149.009 167.99C149.197 167.875 149.393 167.772 149.587 167.656C148.62 169.303 148.732 171.108 148.762 172.946C149.282 171.541 149.734 169.649 150.758 168.55C152.294 168.626 153.409 167.467 154.958 167.329L155.359 167.691C155.378 168.855 154.389 169.358 154.007 170.371C152.952 173.211 152.628 176.886 152.022 179.889C153.836 181.082 156.46 183.065 158.721 183.029C159.541 183.016 159.702 182.984 160.241 182.391C160.535 179.735 157.986 181.346 156.937 179.956L157.893 179.962C158.21 179.005 157.628 177.503 157.377 176.521C157.388 176.506 157.406 176.49 157.424 176.481C157.906 176.208 158.438 176.001 158.802 175.567C159.7 174.508 159.521 172.997 159.49 171.716C159.435 169.551 159.355 168.854 160.906 167.257C161.472 166.673 161.952 166.169 162.39 165.485L162.133 165.147C157.708 164.428 152.282 165.221 147.781 165.561L147.787 165.56ZM371.712 161.855C371.622 161.869 371.533 161.896 371.442 161.91C370.616 162.096 369.913 162.35 369.129 162.689C366.403 163.883 363.487 163.84 360.741 162.705C356.283 160.864 347.913 153.148 344.657 149.426C352.585 150.94 359.665 155.831 367.532 157.897C365.787 154.864 363.654 153.489 360.513 152.155C356.092 150.733 349.358 149.175 345.435 146.981C344.187 146.278 341.969 142.84 341.019 142.781C340.55 143.827 340.626 144.365 341.03 145.443C342.03 148.113 346.296 156.644 347.75 159.079C349.472 160.233 351.354 160.879 353.241 161.689C358.009 163.734 362.421 165.701 367.749 164.664C369.3 164.36 370.213 163.749 371.395 162.726L371.703 161.837L371.913 161.307L371.565 160.897L371.423 161.184L371.703 161.837L371.712 161.855ZM106.684 203.434C109.02 204.401 112.078 204.163 114.464 203.512C113.096 202.675 108.455 203.4 106.684 203.434ZM58.9488 238.906L58.8176 239.562L58.3493 240.052L58.5443 240.632C58.6784 240.253 58.8135 239.967 58.8111 239.563L58.9423 238.907L58.9488 238.906ZM60.5117 242.437C61.5567 240.567 61.8149 238.148 61.7547 236.029C60.7124 237.184 60.6357 240.828 60.5117 242.437ZM53.4972 276.521C50.0896 274.228 39.8616 272.537 38.2579 270.597C38.7363 268.057 39.0529 264.854 40.4258 262.615L40.3753 263.107C40.0962 265.562 38.5938 268.079 39.8139 270.457C40.417 270.888 40.897 271.079 41.6117 271.288L42.3299 271.303C43.5093 269.704 42.9914 264.216 43.3123 261.946C43.6007 259.94 44.192 257.921 44.6931 255.961C43.7088 260.083 42.8926 268.407 44.4395 272.351L45.1084 272.434C46.6623 267.231 44.317 256.231 47.4405 250.761L47.7118 251.017C47.9159 253.253 47.5781 255.499 47.4236 257.729C47.0959 262.631 46.6139 267.736 46.7773 272.642L47.355 272.951C47.9748 272.326 48.0437 271.825 48.1386 270.975C49.0105 262.841 48.2318 254.49 50.0849 246.444C51.1172 252.562 49.681 262.201 49.5129 268.703L49.9601 268.853L49.7139 269.321L49.7333 269.318C50.9529 266.341 50.9623 256.172 51.324 252.398C51.5917 249.567 52.1429 246.897 52.9017 244.156C49.1465 248.491 44.3221 252.121 39.9515 255.815C25.2644 268.204 12.2112 279.322 4.40181 297.482C4.64244 297.279 4.88305 297.077 5.12468 296.88C12.2248 291.151 26.6556 292.328 35.0084 293.677C39.2284 294.354 43.377 295.56 47.628 296.007L48.0926 296.055C48.4153 292.891 49.6195 289.942 50.3331 286.863C50.8552 284.609 51.0093 281.987 51.8273 279.847C52.2519 278.728 52.9854 277.634 53.4982 276.528L53.4972 276.521ZM139.118 260.862L139.301 261.019C141.198 265.341 145.751 269.268 148.801 272.816C151.036 275.416 152.134 278.641 154.403 281.202C159.407 286.856 165.217 291.326 169.682 297.566C173.244 302.553 176.185 308.147 178.425 313.847C179.522 316.628 180.379 319.883 181.807 322.488C181.317 318.308 179.573 313.943 178.282 309.939C174.822 299.746 170.982 289.241 164.152 280.765C161.419 277.381 158.157 274.786 155.047 271.797C150.692 267.608 148.093 262.035 145.679 256.587C146.39 261.952 148.378 266.088 150.789 270.874C146.902 267.66 143.258 264.13 139.295 261.02L139.111 260.863L139.118 260.862ZM147.269 212.121C147.267 213.924 147.325 215.725 147.455 217.521C147.501 218.084 147.554 218.639 147.613 219.2C147.673 219.761 147.744 220.313 147.817 220.872C147.896 221.43 147.974 221.981 148.066 222.537C148.152 223.094 148.255 223.641 148.36 224.195C148.465 224.749 148.576 225.295 148.7 225.846C148.818 226.398 148.948 226.942 149.078 227.485C149.214 228.028 149.351 228.577 149.501 229.117C149.65 229.657 149.806 230.197 149.968 230.735C150.13 231.274 150.299 231.811 150.479 232.34C150.655 232.877 150.842 233.405 151.029 233.933C151.222 234.46 151.416 234.987 151.623 235.512C151.829 236.037 152.041 236.554 152.26 237.071C152.478 237.588 152.703 238.103 152.934 238.611C153.165 239.126 153.402 239.633 153.652 240.138C153.895 240.644 154.151 241.142 154.407 241.646C154.662 242.143 154.931 242.639 155.206 243.134C155.479 243.622 155.754 244.117 156.04 244.596C156.327 245.083 156.619 245.561 156.911 246.04C157.21 246.518 157.514 246.988 157.825 247.457C158.135 247.927 158.452 248.388 158.774 248.849C159.097 249.31 159.425 249.763 159.759 250.216C160.094 250.668 160.434 251.113 160.781 251.557C161.127 252.001 161.479 252.437 161.838 252.872C162.196 253.308 162.56 253.736 162.93 254.156C163.299 254.577 163.675 254.996 164.05 255.409C164.431 255.821 164.819 256.232 165.206 256.637C165.599 257.04 165.992 257.438 166.397 257.833C166.796 258.229 167.206 258.61 167.617 258.997C168.026 259.379 168.443 259.759 168.863 260.125C169.285 260.498 169.712 260.863 170.145 261.221C170.578 261.578 171.011 261.936 171.454 262.279C171.898 262.622 172.343 262.971 172.792 263.306C180.249 268.796 188.521 273.066 196.009 278.498C199.479 281.021 202.51 284.101 205.756 286.897C204.623 284.87 202.813 283.094 201.188 281.448C196.233 276.416 190.622 272.333 184.864 268.286C181.104 265.642 177.336 263.245 174.121 259.921C167.534 253.105 161.946 244.213 157.986 235.648C156.515 232.454 155.429 229.095 153.903 225.936L153.73 225.584C155.297 232.204 157.4 238.045 160.056 244.291C156.61 239.717 153.851 235.521 151.62 230.23C149.337 224.337 148.452 218.276 147.274 212.114L147.269 212.121ZM262.702 305.751C252.563 314.87 248.027 322.838 242.307 334.924C241.286 337.082 239.92 339.234 239.037 341.424C247.172 336.907 252.55 323.203 257.166 315.277C258.733 312.577 261.673 308.852 262.618 306.069C262.655 305.964 262.671 305.855 262.702 305.751ZM278.693 379.198C280.293 380.47 282.284 381.477 284.04 382.553C288.517 385.292 293.07 387.926 297.239 391.117L296.921 391.206C292.27 392.424 288.068 394.799 283.413 395.951C286.154 397.055 288.407 398.306 290.703 400.18C289.7 402.926 289.484 405.882 289.901 408.767C290.208 410.894 290.79 412.787 292.658 414.031C293.286 414.451 293.812 414.682 294.565 414.58L294.614 414.035C294.107 410.004 293.178 403.996 296.518 400.925C297.645 399.89 299.185 399.262 300.536 398.564C302.323 397.64 304.028 396.703 305.449 395.252C306.161 394.533 307.107 393.486 307.42 392.503C307.537 392.141 307.766 391.522 307.518 391.156C306.474 389.626 301.987 388.678 300.168 387.877C293.157 384.778 286.149 381.142 278.693 379.198ZM41.7665 448.958C37.7583 453.113 34.4879 460.131 34.6606 466.003C34.6996 467.25 34.9947 468.437 35.3305 469.631C36.5845 466.834 36.8973 463.26 37.8574 460.276C38.9267 456.924 41.3561 452.242 41.7739 448.964L41.7665 448.958ZM163.374 440.405L163.556 440.55C166.053 447.45 179.668 459.285 178.376 467.311C177.832 470.675 174.936 473.314 173.859 476.528C172.888 479.441 173.378 482.414 172.911 485.376C171.467 494.446 157.243 502.556 149.816 505.943C145.468 507.929 139.913 509.472 136.157 512.381C134.641 513.556 133.781 514.993 133.558 516.903C132.977 521.844 135.345 526.73 138.383 530.412C136.847 527.275 135.018 523.479 135.322 519.893C135.497 517.878 136.136 516.772 137.638 515.461C143.495 512.56 149.482 510.369 155.13 506.969C161.204 503.319 171.833 495.231 173.849 488.161C174.662 485.299 173.998 482.18 174.806 479.325C176.735 472.514 185.845 471.234 191.756 470.234C193.061 470.014 195.142 469.886 196.242 469.154C196.771 468.801 196.6 468.98 196.724 468.278L195.325 466.803C195.27 467.05 195.203 467.438 195.084 467.655C194.652 468.463 193.733 468.697 192.887 468.794C190.552 469.047 188 468.305 186.143 466.874C183.91 465.155 182.006 462.253 180.252 460.024C176.313 455.041 168.137 444.227 163.54 440.532L163.358 440.388L163.374 440.405ZM151.015 6.98201C150.342 7.17159 149.238 7.28135 148.81 7.81766C151.832 7.98337 154.869 7.43734 157.894 7.58263C166.401 7.99294 174.669 12.8012 180.237 19.0645C182.488 21.5953 184.546 24.6397 185.681 27.8456C186.546 27.8652 186.7 27.9609 187.378 27.459C187.775 25.8539 186.547 23.9016 185.733 22.5685C181.108 14.9806 174.125 8.60974 165.301 6.57114C161.041 5.58824 155.144 5.4267 151.015 6.98201ZM255.778 0.955916C250.544 10.767 246.996 23.0101 250.287 34.0373C250.968 36.3187 251.966 38.7172 253.212 40.7462C254.785 43.3018 261.019 49.761 259.594 52.6111C258.744 52.7682 258.15 52.6605 257.312 52.5108L257.217 52.7972C258.369 53.2234 259.344 53.657 260.587 53.5522C261 53.2635 261.32 53.1879 261.439 52.6659C262.143 49.7011 255.698 40.8351 254.227 37.7272C252.761 34.6118 251.65 31.3491 251.159 27.9317C251.036 27.0028 250.946 26.0753 250.896 25.1419C250.845 24.2085 250.835 23.2756 250.857 22.3443C250.88 21.4129 250.942 20.482 251.045 19.5516C251.147 18.6212 251.284 17.6989 251.455 16.7844C251.872 14.4934 256.122 2.02985 255.772 0.956907L255.778 0.955916ZM140.272 51.4414C138.734 51.704 136.321 51.783 134.997 52.5696C135.027 54.0628 136.941 55.4325 136.569 56.5501L136.092 56.683C135.516 56.3406 134.946 55.9973 134.355 55.6838L134.514 56.5077L134.849 57.1324C136.889 57.6873 139.528 57.0435 141.616 56.7428C141.485 55.0727 141.434 53.4037 140.917 51.8062C140.364 51.4404 140.604 51.4898 140.272 51.4414ZM141.628 50.7824C141.809 52.6039 141.804 54.8183 142.433 56.5378C143.107 56.7855 142.797 56.7536 143.345 56.7358C143.197 54.9093 143.344 52.8454 142.889 51.0925C142.434 50.937 142.109 50.8477 141.629 50.7888L141.628 50.7824ZM130.798 60.3592C127.652 63.6989 126.417 67.1363 126.56 71.7405C126.793 78.9955 129.546 82.682 130.762 89.0437C131.278 81.0971 130.819 72.8429 133.498 65.2536C133.703 72.2411 135.722 77.8365 138.923 84.0125C142.366 90.7614 145.265 96.5199 146.194 104.125C148.239 98.6216 149.268 95.481 146.656 89.7843C142.219 80.0931 134.715 70.9324 135.23 59.7847C133.75 59.9457 132.251 60.0698 130.786 60.3677L130.798 60.3592ZM175.932 53.9588C175.529 54.2724 174.798 54.6498 174.72 55.1722C174.503 56.6968 175.912 58.4026 176.863 59.4627C177.471 60.1383 177.992 60.774 178.873 61.1159L179.367 60.7021C179.884 59.0188 180.418 57.4057 181.117 55.7871C179.392 54.6072 178.034 54.0933 175.938 53.9578L175.932 53.9588ZM147.006 64.3922C148.025 65.4619 148.511 65.7319 150.03 65.7837C148.991 65.0617 148.279 64.5679 147.006 64.3922ZM248.08 58.8133C224.852 82.6152 215.761 106.46 203.315 136.42C199.802 144.88 197.236 154.759 191.236 161.778C191.416 161.876 191.589 162.009 191.786 162.038C194.255 161.805 196.372 161.605 198.113 159.602C202.989 153.981 214.382 120.696 217.526 112.512C219.904 106.334 222.7 100.112 225.619 94.1692C229.34 86.592 234.346 79.5268 239.914 73.1839C242.328 70.4337 245.241 67.9054 247.347 64.9175C248.289 63.5864 249.092 62.1243 248.879 60.4338C248.819 59.9591 248.691 59.3425 248.346 58.9912C248.268 58.917 248.167 58.8662 248.079 58.8069L248.08 58.8133ZM163.45 80.3192C160.781 87.284 155.648 88.5163 152.774 93.8822C151.451 96.3588 151.142 99.4881 150.156 102.132C149.218 104.655 147.808 106.82 146.651 109.218C145.255 112.124 144.28 115.183 142.641 117.973C142.195 118.738 141.764 119.513 141.325 120.283L141.425 120.5L141.951 120.041C143.659 117.956 145.264 115.854 146.711 113.577C151.823 105.561 156.322 97.0026 161.19 88.8252C161.748 87.8845 165.521 82.1552 165.51 81.6531L163.45 80.3192ZM163.106 87.1457C162.14 88.8384 157.869 95.2937 158.217 96.8308C158.225 96.8827 158.259 96.9305 158.279 96.9738C159.785 94.9531 163.234 89.9628 163.247 87.462L163.113 87.1447L163.106 87.1457ZM171.613 90.7043C170.02 96.4302 168.657 102.015 169.001 108.013C169.368 106.558 169.721 105.106 170.061 103.648L170.386 103.565C170.647 104.36 170.828 105.101 170.974 105.927L171.058 107.034L171.447 107.319C172.939 106.64 174.235 104.326 174.773 102.825C175.761 100.109 175.247 97.3641 173.966 94.85C173.252 93.4352 172.503 92.0125 171.612 90.6979L171.613 90.7043ZM288.833 73.8641C286.054 76.1002 284.62 79.6675 282.983 82.7755C285.46 80.8641 289.103 77.3089 292.396 77.6051C295.339 77.8625 298.172 81.0729 300.292 82.9676C297.296 84.7798 293.684 86.6799 290.078 85.7689C288.643 85.4059 287.824 84.7298 286.907 83.5979L286.562 83.2467C285.936 83.747 285.691 84.0896 285.366 84.8222C285.586 85.8687 286.403 86.5254 287.259 87.0964C289.625 88.6885 292.346 89.0593 295.098 88.4245C298.357 87.6788 301.128 86.425 304.524 86.0095C301.928 82.4446 297.391 73.9616 292.843 73.3941C291.532 73.2308 290.119 73.607 288.839 73.8631L288.833 73.8641ZM252.547 86.2629C250.913 93.0158 245.063 114.832 247.62 120.046C247.975 116.446 248.305 112.849 249.053 109.308C250.278 103.473 254.879 91.8698 252.554 86.2684L252.547 86.2629ZM167.393 101.036C157.733 121.044 147.957 126.005 128.719 135.521C124.185 137.761 119.414 139.886 115.154 142.615C124.51 147.216 133.899 151.905 142.86 157.256C146.308 159.119 150.733 162.47 154.562 163.108C157.065 163.525 159.664 163.226 162.125 163.928C164.522 164.607 166.567 166.142 169.036 166.85C170.66 166.117 172.649 165.348 173.416 163.606C173.808 162.711 173.827 161.581 173.407 160.704C172.03 157.861 169.573 155.414 167.904 152.708C164.54 147.24 154.623 126.771 156.661 121.228C157.386 119.255 159.723 117.126 161.021 115.436C163.164 112.641 168.091 104.72 167.402 101.048L167.393 101.036ZM109.042 140.233L107.877 141.233C108.376 141.64 109.345 141.432 109.993 141.419L110.608 141.198C110.373 140.611 110.013 140.514 109.41 140.302C109.291 140.26 109.164 140.253 109.041 140.226L109.042 140.233ZM103.052 149.484C99.7253 150.909 95.6605 152.925 94.2863 156.536C94.1024 157.022 94.0932 157.481 94.1061 157.996C94.5641 158.734 94.6616 158.938 95.5456 159.213C97.1946 159.722 99.7032 158.707 101.283 158.246C104.454 156.97 107.734 155.452 109.197 152.119C109.697 150.975 109.893 149.619 110.137 148.402C107.715 148.595 105.415 148.902 103.053 149.49L103.052 149.484ZM193.214 140.908C185.285 145.34 178.227 150.268 175.608 159.498C175.254 160.732 175.128 161.984 175.006 163.256C179.28 161.784 183.492 160.687 186.726 157.314C187.448 156.321 188.2 155.344 188.878 154.326C184.593 156.501 180.441 158.73 175.815 160.109C180.75 152.71 188.593 148.755 193.457 141.367C193.311 140.939 193.441 141.052 193.215 140.914L193.214 140.908ZM115.422 153.854C114.302 154.291 113.206 154.791 112.137 155.339C111.068 155.888 110.027 156.492 109.021 157.144C108.014 157.795 107.035 158.502 106.096 159.25C105.158 160.003 104.259 160.798 103.401 161.639C108.547 160.663 113.239 159.366 118.492 160.077C122.231 159.914 125.61 159.083 129.219 158.112C124.652 157.553 119.982 157.959 115.493 156.952C116.222 156.177 117.341 155.263 117.53 154.2C117.015 153.742 116.352 153.784 115.661 153.817C115.583 153.823 115.506 153.841 115.435 153.852L115.422 153.854ZM355.883 124.551C353.036 125.863 351.32 127.638 350.251 130.646C348.933 134.367 349.373 138.224 351.104 141.729C352.315 144.174 354.428 146.76 357.109 147.64C359.594 148.458 362.986 148.494 365.337 147.225C367.307 146.16 368.582 143.844 369.142 141.75C369.735 139.524 369.288 136.915 368.093 134.965C367.049 133.256 365.314 131.845 363.336 131.394C362.444 131.193 361.268 131.134 360.422 131.536C359.6 131.927 359.554 132.273 359.372 133.069C360.949 137.99 367.702 136.218 367.731 142.708C366.766 144.752 365.477 146.282 363.271 147.025C360.971 147.803 358.188 147.289 356.118 146.109C353.285 144.496 351.406 141.537 350.611 138.431C350.027 136.141 350.022 133.69 351.273 131.609C352.619 129.367 355.025 128.07 357.519 127.521C359.571 127.074 361.853 127.041 363.902 127.522C367.106 128.276 372.272 131.745 375.273 128.805C375.282 128.26 375.395 128.176 375.01 127.738C372.984 125.418 365.586 123.598 362.564 123.605C360.305 123.607 358.059 124.005 355.878 124.559L355.883 124.551ZM140.457 166.341C142.11 166.657 143.364 166.491 144.966 166.053C143.32 165.735 142.052 165.891 140.457 166.341ZM352.52 133.856C352.868 135.473 353.077 138.391 354.518 139.356C354.528 137.83 354.416 135.242 353.061 134.184C352.895 134.057 352.703 133.968 352.52 133.856ZM163.627 167.8C161.686 170.093 160.748 172.398 160.991 175.449C161.133 177.237 161.505 179.533 162.571 180.993C162.607 180.795 162.689 180.597 162.653 180.404C162.44 176.128 162.876 172.794 165.017 168.992C165.334 168.426 165.801 168.189 165.312 167.634C164.756 167.687 164.185 167.721 163.628 167.807L163.627 167.8ZM145.285 181.897L145.278 182.064L145.373 181.997L145.44 181.827L145.286 181.904L145.285 181.897ZM161.335 184.251C153.377 188.708 147.783 190.223 138.937 192.092C148.822 192.754 155.992 189.811 164.358 184.815C163.261 186.998 162.167 189.108 160.481 190.904C157.092 194.904 153.477 198.429 149.322 201.625C157.029 198.334 165.038 191.921 169.396 184.69C166.872 184.395 163.822 183.697 161.341 184.25L161.335 184.251ZM1.5522 236.021C-13.5574 241.43 -38.6417 255.429 -48.0628 267.971C-46.2782 267.81 -44.4841 267.581 -42.69 267.61C-42.1428 275.274 -42.9475 283.371 -40.2365 290.71L-38.5513 295.037C-38.6299 280.541 -38.764 270.474 -27.9468 259.6C-22.045 253.663 -15.2447 247.966 -8.38437 243.135C-4.9694 240.728 -1.2233 238.622 2.04329 236.026L1.56415 236.013L1.5522 236.021ZM56.317 240.629C55.7268 242.31 54.7765 249.157 55.1541 250.796C55.1959 250.982 55.3199 251.142 55.406 251.314C55.97 248.815 57.7523 242.941 56.317 240.629ZM54.4657 242.299C53.2603 244.333 51.7983 255.314 52.5288 257.741C52.5567 257.836 52.6029 257.922 52.6438 258.015C53.2347 255.604 55.0997 244.183 54.4657 242.299ZM-11.4483 293.838C-12.744 299.903 -12.6815 306.137 -12.8013 312.306C-12.9504 319.924 -13.1742 327.66 -14.5326 335.173C-15.2574 339.042 -16.2999 342.828 -17.6621 346.516C-18.2713 348.161 -21.0314 352.846 -20.969 354.116C-12.9107 345.475 -8.82753 336.544 -9.26944 324.602C-9.51119 318.15 -10.7456 311.751 -11.0167 305.324C-11.1474 302.229 -10.5272 296.6 -11.4473 293.845L-11.4483 293.838ZM10.0642 296.374C8.01794 297.033 5.69877 297.554 4.15779 299.13C3.99222 299.865 3.93254 299.562 4.12764 300.056C9.41837 301.146 16.6587 299.954 22.3037 300.373C28.7397 300.85 35.0194 302.51 41.3755 303.503C51.6702 305.11 61.7604 304.521 72.0061 302.961L72.9521 302.604C71.5846 301.727 66.6748 302.773 64.9788 302.993C66.7333 302.16 68.5022 301.378 70.1461 300.344C63.7915 299.318 57.3373 299.931 50.9586 299.267C45.7719 298.725 40.7945 297.388 35.6741 296.458C27.5255 294.972 18.1684 294.592 10.0568 296.368L10.0642 296.374ZM81.0375 303.808C84.9416 329.535 94.5012 361.186 116.248 377.293C118.873 379.236 126.759 384.753 129.834 384.579C130.235 384.557 130.628 384.397 130.987 384.229L130.16 380.917C126.812 378.793 123.678 376.517 120.88 373.699C117.673 370.473 115.04 366.662 112.489 362.911C100.429 345.191 93.1232 325.064 88.3859 304.27C85.9374 304.123 83.4809 304.009 81.0439 303.807L81.0375 303.808ZM-78.9693 340.653C-78.8484 355.468 -70.8142 375.676 -60.245 386.149C-58.8389 387.537 -57.344 388.812 -55.8188 390.069C-56.9973 386.796 -59.6511 383.585 -61.4687 380.597C-63.8454 376.687 -66.0209 372.534 -68.0299 368.428C-70.8494 362.67 -73.356 356.62 -75.5159 350.582C-76.687 347.315 -77.6009 343.823 -78.9693 340.653ZM-7.33868 337.952C-7.88436 349.635 -11.2786 361.456 -17.9356 371.194C-19.6028 373.631 -21.6699 375.751 -23.4203 378.121C-25.7407 381.268 -27.0082 384.538 -29.9844 387.255L-30.2809 387.526L-30.3503 388.067C-18.847 381.661 -12.429 369.978 -8.92063 357.648C-7.52465 352.754 -5.53454 342.838 -7.33868 337.952ZM216.723 310.187C215.746 324.156 211.221 336.211 200.461 345.605C197.047 348.575 193.425 351.272 189.594 353.689C190.795 347.268 191.38 340.809 190.528 334.305C189.756 342.748 188.454 350.192 184.959 357.993C183.743 360.003 182.501 361.97 180.943 363.74C179.641 365.226 178.058 366.662 176.934 368.273C176.527 368.859 176.322 369.082 176.384 369.789C178.991 369.673 182.861 365.699 184.563 363.834C186.056 362.199 187.16 360.459 188.303 358.58C198.868 355.301 208.035 350.639 213.394 340.477C217.706 332.299 219.013 319.015 216.71 310.189L216.723 310.187ZM157.863 356.348C171.402 366.564 179.443 387.592 183.356 403.839C182.186 390.604 178.928 371.029 168.465 362.156C165.791 359.89 161.33 356.823 157.863 356.348ZM141.954 369.495C143.247 374.678 149.353 381.078 152.268 385.86C157.275 394.085 161.805 402.648 166.571 411.023C168.422 414.272 170.366 418.818 172.963 421.448C171.492 417.048 169.701 412.763 168.129 408.398C163.703 396.06 157.879 376.912 145.462 370.501C144.309 369.902 143.23 369.65 141.954 369.495ZM139.067 370.204C136.194 374.025 135.161 378.823 135.803 383.523C136.368 387.678 138.134 391.927 140.493 395.376L140.72 395.686C140.375 393.353 139.462 391.12 138.886 388.836C137.752 384.344 137.445 378.631 138.472 374.099C138.681 373.172 139.657 370.855 139.067 370.204ZM-76.7053 421.219C-79.6901 426.297 -82.608 432.2 -87.2013 436.04C-88.6047 437.217 -90.273 438.136 -91.7561 439.225C-93.232 443.038 -93.3868 449.842 -91.7796 453.704C-91.4934 454.403 -91.2494 454.438 -90.6114 454.751C-90.5581 454.624 -90.5047 454.496 -90.4514 454.369C-88.9263 450.661 -88.9161 442.872 -84.8414 441.179C-83.1219 440.464 -81.5735 440.923 -79.8672 441.416C-79.5721 438.633 -76.6127 421.563 -76.7063 421.213L-76.7053 421.219ZM-86.4048 479.987C-84.5865 496.317 -82.3351 515.683 -85.7032 531.862C-86.2952 534.697 -89.7609 543.852 -87.2785 545.817C-87.1207 545.939 -86.9409 546.03 -86.7656 546.136C-83.7557 544.156 -82.6744 542.393 -81.9741 538.925C-79.8389 528.357 -81.9406 488.773 -86.3993 479.98L-86.4048 479.987ZM41.7639 500.391C47.6982 510.29 54.4733 519.622 60.3084 529.609C62.3371 533.023 64.2313 536.51 66.0029 540.062C67.5799 543.253 69.0034 546.74 71.0427 549.661C71.9439 550.954 73.9192 552.639 75.5344 552.842C75.8925 552.886 75.9468 552.851 76.2537 552.778C76.1174 550.207 75.2254 548.283 74.0162 546.063C68.147 535.292 59.3058 524.116 52.125 513.998C49.3508 510.089 45.8312 503.916 42.4427 500.884C42.0508 500.533 42.1713 500.627 41.7629 500.385L41.7639 500.391ZM116.935 508.745C113.412 511.619 111.677 516.114 111.25 520.587C111.153 521.596 111.119 522.45 111.413 523.419L111.868 523.614C112.398 522.923 112.65 522.235 112.944 521.427C113.025 521.309 113.099 521.185 113.18 521.066C115.401 517.789 119.631 514.78 120.754 511.002C120.599 510.164 120.583 509.888 119.815 509.377C119.034 508.86 117.844 508.751 116.935 508.745ZM122.215 512.355C120.666 514.137 119.159 516.582 119.738 519.105C119.817 519.444 119.893 519.505 120.064 519.757C121.038 519.668 121.451 519.511 122.319 519.981L122.773 521.429L123.019 521.517C123.214 520.805 123.396 520.094 123.558 519.373L123.939 519.441C124.271 520.954 124.479 523.388 125.415 524.609C126.053 524.359 125.788 524.578 126.144 523.874C127.095 519.791 129.603 516.788 131.181 512.993C128.166 513.304 125.211 512.704 122.221 512.354L122.215 512.355ZM110.477 561.865C105.77 564.185 95.5606 571.553 93.8942 576.455C93.6938 577.049 93.7994 577.218 93.9157 577.803L94.2833 577.952C94.8946 577.487 95.3967 577.046 95.9049 576.471C99.2385 572.93 102.988 569.637 107.058 566.964C108.895 565.76 112.465 564.708 113.849 563.19C113.601 562.486 113.448 562.523 112.809 562.203C112.02 561.814 111.335 561.714 110.478 561.872L110.477 561.865Z" fill="#494949" fill-opacity="0.05"/>
</svg>