<svg xmlns="http://www.w3.org/2000/svg" width="20" height="20" viewBox="0 0 20 20" fill="none">
  <g clip-path="url(#clip0_11159_921)">
    <path d="M9.66477 18.854H4.4483C3.03064 18.854 1.88039 17.6995 1.88039 16.2861V3.71392C1.88039 2.29626 3.03488 1.14601 4.4483 1.14601H9.74966C10.068 1.14601 10.3227 0.891341 10.3227 0.573005C10.3227 0.254669 10.068 0 9.74966 0H4.4483C2.39821 0 0.734375 1.66808 0.734375 3.71392V16.2861C0.734375 18.3362 2.40246 20 4.4483 20H9.66477C9.9831 20 10.2378 19.7453 10.2378 19.427C10.2378 19.1087 9.97886 18.854 9.66477 18.854Z" fill="black"/>
    <path d="M19.1028 9.59564L15.461 5.95387C15.236 5.72892 14.8753 5.72892 14.6503 5.95387C14.4253 6.17883 14.4253 6.53961 14.6503 6.76457L17.3158 9.4301H5.69019C5.37186 9.4301 5.11719 9.68477 5.11719 10.0031C5.11719 10.3214 5.37186 10.5761 5.69019 10.5761H17.3158L14.6503 13.2417C14.4253 13.4666 14.4253 13.8274 14.6503 14.0523C14.7606 14.1627 14.9092 14.2221 15.0535 14.2221C15.1978 14.2221 15.3464 14.1669 15.4567 14.0523L19.0985 10.4106C19.3277 10.1814 19.3277 9.81635 19.1028 9.59564Z" fill="black"/>
  </g>
  <defs>
    <clipPath id="clip0_11159_921">
      <rect width="20" height="20" fill="white"/>
    </clipPath>
  </defs>
</svg>