<svg xmlns="http://www.w3.org/2000/svg" width="20" height="20" viewBox="0 0 20 20" fill="none">
  <path d="M10.0175 2.42499C7.25914 2.42499 5.01747 4.66665 5.01747 7.42499V9.83332C5.01747 10.3417 4.80081 11.1167 4.54247 11.55L3.58414 13.1417C2.99247 14.125 3.40081 15.2167 4.48414 15.5833C8.07581 16.7833 11.9508 16.7833 15.5425 15.5833C16.5508 15.25 16.9925 14.0583 16.4425 13.1417L15.4841 11.55C15.2341 11.1167 15.0175 10.3417 15.0175 9.83332V7.42499C15.0175 4.67499 12.7675 2.42499 10.0175 2.42499Z" stroke="#050505" stroke-width="1.5" stroke-miterlimit="10" stroke-linecap="round"/>
  <path d="M11.5599 2.66664C11.3016 2.59164 11.0349 2.5333 10.7599 2.49997C9.9599 2.39997 9.19323 2.4583 8.47656 2.66664C8.71823 2.04997 9.31823 1.61664 10.0182 1.61664C10.7182 1.61664 11.3182 2.04997 11.5599 2.66664Z" stroke="#050505" stroke-width="1.5" stroke-miterlimit="10" stroke-linecap="round" stroke-linejoin="round"/>
  <path d="M12.5156 15.8834C12.5156 17.2584 11.3906 18.3834 10.0156 18.3834C9.33229 18.3834 8.69896 18.1 8.24896 17.65C7.79896 17.2 7.51562 16.5667 7.51562 15.8834" stroke="#050505" stroke-width="1.5" stroke-miterlimit="10"/>
</svg>